<mxfile host="Electron" modified="2023-12-01T20:10:25.462Z" agent="Mozilla/5.0 (Windows NT 10.0; Win64; x64) AppleWebKit/537.36 (KHTML, like Gecko) draw.io/21.2.8 Chrome/112.0.5615.165 Electron/24.2.0 Safari/537.36" etag="hoJ3REUHGD9zSaAfZYvc" version="21.2.8" type="device">
  <diagram name="Page-1" id="mjo8pOZQO7tHGXH2JL3N">
    <mxGraphModel dx="2205" dy="2260" grid="1" gridSize="10" guides="1" tooltips="1" connect="1" arrows="1" fold="1" page="1" pageScale="1" pageWidth="1169" pageHeight="1654" background="#F5E0F5" math="0" shadow="0">
      <root>
        <mxCell id="0" />
        <mxCell id="1" parent="0" />
        <mxCell id="y39kKQjTk7_2rvZ30SJY-1" value="Webiste" style="ellipse;whiteSpace=wrap;html=1;aspect=fixed;fillColor=#e1d5e7;strokeColor=#9673a6;" parent="1" vertex="1">
          <mxGeometry x="500" y="270" width="80" height="80" as="geometry" />
        </mxCell>
        <mxCell id="y39kKQjTk7_2rvZ30SJY-2" value="Home" style="rounded=1;whiteSpace=wrap;html=1;" parent="1" vertex="1">
          <mxGeometry x="610" y="200" width="80" height="30" as="geometry" />
        </mxCell>
        <mxCell id="y39kKQjTk7_2rvZ30SJY-3" value="Header" style="rounded=1;whiteSpace=wrap;html=1;" parent="1" vertex="1">
          <mxGeometry x="390" y="200" width="80" height="30" as="geometry" />
        </mxCell>
        <mxCell id="y39kKQjTk7_2rvZ30SJY-4" value="Home" style="shape=hexagon;perimeter=hexagonPerimeter2;whiteSpace=wrap;html=1;fixedSize=1;" parent="1" vertex="1">
          <mxGeometry x="160" y="-290" width="100" height="50" as="geometry" />
        </mxCell>
        <mxCell id="y39kKQjTk7_2rvZ30SJY-5" value="Sign-up" style="shape=hexagon;perimeter=hexagonPerimeter2;whiteSpace=wrap;html=1;fixedSize=1;" parent="1" vertex="1">
          <mxGeometry x="160" y="60" width="100" height="50" as="geometry" />
        </mxCell>
        <mxCell id="y39kKQjTk7_2rvZ30SJY-6" value="Sign-in" style="shape=hexagon;perimeter=hexagonPerimeter2;whiteSpace=wrap;html=1;fixedSize=1;" parent="1" vertex="1">
          <mxGeometry x="160" y="-200" width="100" height="50" as="geometry" />
        </mxCell>
        <mxCell id="y39kKQjTk7_2rvZ30SJY-7" value="Genre" style="shape=hexagon;perimeter=hexagonPerimeter2;whiteSpace=wrap;html=1;fixedSize=1;" parent="1" vertex="1">
          <mxGeometry x="160" y="310" width="100" height="50" as="geometry" />
        </mxCell>
        <mxCell id="y39kKQjTk7_2rvZ30SJY-8" value="Art and Photography" style="ellipse;whiteSpace=wrap;html=1;" parent="1" vertex="1">
          <mxGeometry x="30" y="200" width="80" height="50" as="geometry" />
        </mxCell>
        <mxCell id="y39kKQjTk7_2rvZ30SJY-9" value="History" style="ellipse;whiteSpace=wrap;html=1;" parent="1" vertex="1">
          <mxGeometry x="30" y="260" width="80" height="50" as="geometry" />
        </mxCell>
        <mxCell id="y39kKQjTk7_2rvZ30SJY-10" value="Fiction" style="ellipse;whiteSpace=wrap;html=1;" parent="1" vertex="1">
          <mxGeometry x="30" y="320" width="80" height="50" as="geometry" />
        </mxCell>
        <mxCell id="y39kKQjTk7_2rvZ30SJY-11" value="Comics" style="ellipse;whiteSpace=wrap;html=1;" parent="1" vertex="1">
          <mxGeometry x="30" y="380" width="80" height="50" as="geometry" />
        </mxCell>
        <mxCell id="y39kKQjTk7_2rvZ30SJY-12" value="Games" style="ellipse;whiteSpace=wrap;html=1;" parent="1" vertex="1">
          <mxGeometry x="30" y="440" width="80" height="50" as="geometry" />
        </mxCell>
        <mxCell id="y39kKQjTk7_2rvZ30SJY-20" value="Search" style="shape=hexagon;perimeter=hexagonPerimeter2;whiteSpace=wrap;html=1;fixedSize=1;" parent="1" vertex="1">
          <mxGeometry x="160" y="440" width="100" height="50" as="geometry" />
        </mxCell>
        <mxCell id="y39kKQjTk7_2rvZ30SJY-21" value="" style="endArrow=classic;html=1;rounded=0;entryX=1;entryY=0.5;entryDx=0;entryDy=0;exitX=0;exitY=0.5;exitDx=0;exitDy=0;" parent="1" source="y39kKQjTk7_2rvZ30SJY-3" target="y39kKQjTk7_2rvZ30SJY-4" edge="1">
          <mxGeometry width="50" height="50" relative="1" as="geometry">
            <mxPoint x="390" y="200" as="sourcePoint" />
            <mxPoint x="340" y="120" as="targetPoint" />
          </mxGeometry>
        </mxCell>
        <mxCell id="y39kKQjTk7_2rvZ30SJY-22" value="" style="endArrow=classic;html=1;rounded=0;entryX=1;entryY=0.5;entryDx=0;entryDy=0;exitX=0;exitY=0.5;exitDx=0;exitDy=0;" parent="1" source="y39kKQjTk7_2rvZ30SJY-3" target="y39kKQjTk7_2rvZ30SJY-5" edge="1">
          <mxGeometry width="50" height="50" relative="1" as="geometry">
            <mxPoint x="360" y="260" as="sourcePoint" />
            <mxPoint x="410" y="210" as="targetPoint" />
          </mxGeometry>
        </mxCell>
        <mxCell id="y39kKQjTk7_2rvZ30SJY-23" value="" style="endArrow=classic;html=1;rounded=0;entryX=1;entryY=0.5;entryDx=0;entryDy=0;exitX=0;exitY=0.5;exitDx=0;exitDy=0;" parent="1" source="y39kKQjTk7_2rvZ30SJY-3" target="y39kKQjTk7_2rvZ30SJY-6" edge="1">
          <mxGeometry width="50" height="50" relative="1" as="geometry">
            <mxPoint x="360" y="260" as="sourcePoint" />
            <mxPoint x="410" y="210" as="targetPoint" />
          </mxGeometry>
        </mxCell>
        <mxCell id="y39kKQjTk7_2rvZ30SJY-24" value="" style="endArrow=classic;html=1;rounded=0;entryX=1;entryY=0.5;entryDx=0;entryDy=0;" parent="1" target="y39kKQjTk7_2rvZ30SJY-7" edge="1">
          <mxGeometry width="50" height="50" relative="1" as="geometry">
            <mxPoint x="390" y="220" as="sourcePoint" />
            <mxPoint x="410" y="210" as="targetPoint" />
          </mxGeometry>
        </mxCell>
        <mxCell id="y39kKQjTk7_2rvZ30SJY-25" value="" style="endArrow=classic;html=1;rounded=0;entryX=1;entryY=0.5;entryDx=0;entryDy=0;" parent="1" target="y39kKQjTk7_2rvZ30SJY-20" edge="1">
          <mxGeometry width="50" height="50" relative="1" as="geometry">
            <mxPoint x="390" y="220" as="sourcePoint" />
            <mxPoint x="410" y="210" as="targetPoint" />
          </mxGeometry>
        </mxCell>
        <mxCell id="y39kKQjTk7_2rvZ30SJY-27" value="" style="edgeStyle=elbowEdgeStyle;elbow=horizontal;endArrow=classic;html=1;curved=0;rounded=0;endSize=8;startSize=8;exitX=1;exitY=0.5;exitDx=0;exitDy=0;" parent="1" source="y39kKQjTk7_2rvZ30SJY-1" edge="1">
          <mxGeometry width="50" height="50" relative="1" as="geometry">
            <mxPoint x="560" y="260" as="sourcePoint" />
            <mxPoint x="610" y="210" as="targetPoint" />
          </mxGeometry>
        </mxCell>
        <mxCell id="y39kKQjTk7_2rvZ30SJY-28" value="" style="edgeStyle=elbowEdgeStyle;elbow=horizontal;endArrow=classic;html=1;curved=0;rounded=0;endSize=8;startSize=8;exitX=0;exitY=0.5;exitDx=0;exitDy=0;" parent="1" source="y39kKQjTk7_2rvZ30SJY-1" edge="1">
          <mxGeometry width="50" height="50" relative="1" as="geometry">
            <mxPoint x="430" y="310" as="sourcePoint" />
            <mxPoint x="470" y="210" as="targetPoint" />
          </mxGeometry>
        </mxCell>
        <mxCell id="y39kKQjTk7_2rvZ30SJY-29" value="All Books" style="shape=hexagon;perimeter=hexagonPerimeter2;whiteSpace=wrap;html=1;fixedSize=1;" parent="1" vertex="1">
          <mxGeometry x="730" y="190" width="100" height="50" as="geometry" />
        </mxCell>
        <mxCell id="y39kKQjTk7_2rvZ30SJY-108" style="edgeStyle=orthogonalEdgeStyle;rounded=0;orthogonalLoop=1;jettySize=auto;html=1;entryX=0;entryY=0.5;entryDx=0;entryDy=0;" parent="1" target="y39kKQjTk7_2rvZ30SJY-104" edge="1">
          <mxGeometry relative="1" as="geometry">
            <mxPoint x="960" y="145" as="sourcePoint" />
            <Array as="points">
              <mxPoint x="960" y="50" />
            </Array>
          </mxGeometry>
        </mxCell>
        <mxCell id="y39kKQjTk7_2rvZ30SJY-110" style="edgeStyle=orthogonalEdgeStyle;rounded=0;orthogonalLoop=1;jettySize=auto;html=1;entryX=0;entryY=0.5;entryDx=0;entryDy=0;" parent="1" source="y39kKQjTk7_2rvZ30SJY-30" target="y39kKQjTk7_2rvZ30SJY-105" edge="1">
          <mxGeometry relative="1" as="geometry" />
        </mxCell>
        <mxCell id="y39kKQjTk7_2rvZ30SJY-30" value="View" style="ellipse;whiteSpace=wrap;html=1;" parent="1" vertex="1">
          <mxGeometry x="880" y="120" width="80" height="50" as="geometry" />
        </mxCell>
        <mxCell id="y39kKQjTk7_2rvZ30SJY-132" style="edgeStyle=orthogonalEdgeStyle;rounded=0;orthogonalLoop=1;jettySize=auto;html=1;entryX=0.5;entryY=0;entryDx=0;entryDy=0;" parent="1" source="y39kKQjTk7_2rvZ30SJY-31" target="y39kKQjTk7_2rvZ30SJY-133" edge="1">
          <mxGeometry relative="1" as="geometry">
            <mxPoint x="920.0000000000005" y="530" as="targetPoint" />
          </mxGeometry>
        </mxCell>
        <mxCell id="y39kKQjTk7_2rvZ30SJY-31" value="Delete" style="ellipse;whiteSpace=wrap;html=1;" parent="1" vertex="1">
          <mxGeometry x="880" y="260" width="80" height="50" as="geometry" />
        </mxCell>
        <mxCell id="y39kKQjTk7_2rvZ30SJY-32" value="Edit" style="ellipse;whiteSpace=wrap;html=1;" parent="1" vertex="1">
          <mxGeometry x="880" y="190" width="80" height="50" as="geometry" />
        </mxCell>
        <mxCell id="y39kKQjTk7_2rvZ30SJY-33" value="" style="endArrow=classic;html=1;rounded=0;exitX=1;exitY=0.5;exitDx=0;exitDy=0;entryX=0;entryY=0.5;entryDx=0;entryDy=0;" parent="1" source="y39kKQjTk7_2rvZ30SJY-2" target="y39kKQjTk7_2rvZ30SJY-29" edge="1">
          <mxGeometry width="50" height="50" relative="1" as="geometry">
            <mxPoint x="660" y="260" as="sourcePoint" />
            <mxPoint x="710" y="210" as="targetPoint" />
          </mxGeometry>
        </mxCell>
        <mxCell id="y39kKQjTk7_2rvZ30SJY-37" value="Footer" style="rounded=1;whiteSpace=wrap;html=1;" parent="1" vertex="1">
          <mxGeometry x="610" y="400" width="80" height="30" as="geometry" />
        </mxCell>
        <mxCell id="y39kKQjTk7_2rvZ30SJY-38" value="" style="edgeStyle=elbowEdgeStyle;elbow=horizontal;endArrow=classic;html=1;curved=0;rounded=0;endSize=8;startSize=8;entryX=0;entryY=0.25;entryDx=0;entryDy=0;" parent="1" target="y39kKQjTk7_2rvZ30SJY-37" edge="1">
          <mxGeometry width="50" height="50" relative="1" as="geometry">
            <mxPoint x="580" y="320" as="sourcePoint" />
            <mxPoint x="630" y="270" as="targetPoint" />
          </mxGeometry>
        </mxCell>
        <mxCell id="y39kKQjTk7_2rvZ30SJY-39" value="&lt;font style=&quot;font-size: 10px;&quot;&gt;Project name and year&lt;/font&gt;" style="shape=hexagon;perimeter=hexagonPerimeter2;whiteSpace=wrap;html=1;fixedSize=1;" parent="1" vertex="1">
          <mxGeometry x="730" y="390" width="100" height="50" as="geometry" />
        </mxCell>
        <mxCell id="y39kKQjTk7_2rvZ30SJY-40" value="" style="endArrow=classic;html=1;rounded=0;exitX=1;exitY=0.5;exitDx=0;exitDy=0;entryX=0;entryY=0.5;entryDx=0;entryDy=0;" parent="1" edge="1">
          <mxGeometry width="50" height="50" relative="1" as="geometry">
            <mxPoint x="690" y="414.5" as="sourcePoint" />
            <mxPoint x="730" y="414.5" as="targetPoint" />
          </mxGeometry>
        </mxCell>
        <mxCell id="y39kKQjTk7_2rvZ30SJY-41" value="Email" style="ellipse;whiteSpace=wrap;html=1;" parent="1" vertex="1">
          <mxGeometry x="-190" y="-40" width="80" height="50" as="geometry" />
        </mxCell>
        <mxCell id="y39kKQjTk7_2rvZ30SJY-42" value="Password" style="ellipse;whiteSpace=wrap;html=1;" parent="1" vertex="1">
          <mxGeometry x="-190" y="20" width="80" height="50" as="geometry" />
        </mxCell>
        <mxCell id="y39kKQjTk7_2rvZ30SJY-43" value="Re-type Password" style="ellipse;whiteSpace=wrap;html=1;" parent="1" vertex="1">
          <mxGeometry x="-190" y="80" width="80" height="50" as="geometry" />
        </mxCell>
        <mxCell id="y39kKQjTk7_2rvZ30SJY-44" value="Terms and Conditions" style="ellipse;whiteSpace=wrap;html=1;" parent="1" vertex="1">
          <mxGeometry x="-190" y="140" width="80" height="50" as="geometry" />
        </mxCell>
        <mxCell id="y39kKQjTk7_2rvZ30SJY-45" value="Sign-up button" style="ellipse;whiteSpace=wrap;html=1;" parent="1" vertex="1">
          <mxGeometry x="-190" y="200" width="80" height="50" as="geometry" />
        </mxCell>
        <mxCell id="y39kKQjTk7_2rvZ30SJY-46" value="Sign-in redirection" style="ellipse;whiteSpace=wrap;html=1;" parent="1" vertex="1">
          <mxGeometry x="-190" y="260" width="80" height="50" as="geometry" />
        </mxCell>
        <mxCell id="y39kKQjTk7_2rvZ30SJY-47" value="Last Name" style="ellipse;whiteSpace=wrap;html=1;" parent="1" vertex="1">
          <mxGeometry x="-190" y="-100" width="80" height="50" as="geometry" />
        </mxCell>
        <mxCell id="y39kKQjTk7_2rvZ30SJY-48" value="First Name" style="ellipse;whiteSpace=wrap;html=1;" parent="1" vertex="1">
          <mxGeometry x="-190" y="-160" width="80" height="50" as="geometry" />
        </mxCell>
        <mxCell id="y39kKQjTk7_2rvZ30SJY-49" value="Reset" style="ellipse;whiteSpace=wrap;html=1;" parent="1" vertex="1">
          <mxGeometry x="-190" y="320" width="80" height="50" as="geometry" />
        </mxCell>
        <mxCell id="y39kKQjTk7_2rvZ30SJY-51" value="" style="edgeStyle=segmentEdgeStyle;endArrow=classic;html=1;curved=0;rounded=0;endSize=8;startSize=8;entryX=0.5;entryY=0;entryDx=0;entryDy=0;exitX=1;exitY=0.5;exitDx=0;exitDy=0;" parent="1" source="y39kKQjTk7_2rvZ30SJY-4" target="y39kKQjTk7_2rvZ30SJY-2" edge="1">
          <mxGeometry width="50" height="50" relative="1" as="geometry">
            <mxPoint x="290" y="-265" as="sourcePoint" />
            <mxPoint x="470" y="80" as="targetPoint" />
          </mxGeometry>
        </mxCell>
        <mxCell id="y39kKQjTk7_2rvZ30SJY-52" value="First Name" style="ellipse;whiteSpace=wrap;html=1;" parent="1" vertex="1">
          <mxGeometry x="40" y="-280" width="80" height="50" as="geometry" />
        </mxCell>
        <mxCell id="y39kKQjTk7_2rvZ30SJY-53" value="First Name" style="ellipse;whiteSpace=wrap;html=1;" parent="1" vertex="1">
          <mxGeometry x="40" y="-200" width="80" height="50" as="geometry" />
        </mxCell>
        <mxCell id="y39kKQjTk7_2rvZ30SJY-54" value="Sign-in Button" style="ellipse;whiteSpace=wrap;html=1;" parent="1" vertex="1">
          <mxGeometry x="40" y="-120" width="80" height="50" as="geometry" />
        </mxCell>
        <mxCell id="y39kKQjTk7_2rvZ30SJY-55" value="" style="endArrow=classic;html=1;rounded=0;exitX=0;exitY=0.5;exitDx=0;exitDy=0;" parent="1" source="y39kKQjTk7_2rvZ30SJY-6" edge="1">
          <mxGeometry width="50" height="50" relative="1" as="geometry">
            <mxPoint x="200" y="-210" as="sourcePoint" />
            <mxPoint x="120" y="-260" as="targetPoint" />
          </mxGeometry>
        </mxCell>
        <mxCell id="y39kKQjTk7_2rvZ30SJY-57" value="" style="endArrow=classic;html=1;rounded=0;exitX=0;exitY=0.5;exitDx=0;exitDy=0;" parent="1" source="y39kKQjTk7_2rvZ30SJY-6" edge="1">
          <mxGeometry width="50" height="50" relative="1" as="geometry">
            <mxPoint x="220" y="-110" as="sourcePoint" />
            <mxPoint x="120" y="-180" as="targetPoint" />
          </mxGeometry>
        </mxCell>
        <mxCell id="y39kKQjTk7_2rvZ30SJY-58" value="" style="endArrow=classic;html=1;rounded=0;exitX=0;exitY=0.5;exitDx=0;exitDy=0;" parent="1" source="y39kKQjTk7_2rvZ30SJY-6" edge="1">
          <mxGeometry width="50" height="50" relative="1" as="geometry">
            <mxPoint x="190" y="-40" as="sourcePoint" />
            <mxPoint x="120" y="-100" as="targetPoint" />
          </mxGeometry>
        </mxCell>
        <mxCell id="y39kKQjTk7_2rvZ30SJY-59" value="" style="endArrow=classic;html=1;rounded=0;exitX=0;exitY=0.5;exitDx=0;exitDy=0;" parent="1" source="y39kKQjTk7_2rvZ30SJY-7" edge="1">
          <mxGeometry width="50" height="50" relative="1" as="geometry">
            <mxPoint x="310" y="290" as="sourcePoint" />
            <mxPoint x="110" y="230" as="targetPoint" />
          </mxGeometry>
        </mxCell>
        <mxCell id="y39kKQjTk7_2rvZ30SJY-60" value="" style="endArrow=classic;html=1;rounded=0;" parent="1" edge="1">
          <mxGeometry width="50" height="50" relative="1" as="geometry">
            <mxPoint x="160" y="330" as="sourcePoint" />
            <mxPoint x="110" y="290" as="targetPoint" />
          </mxGeometry>
        </mxCell>
        <mxCell id="y39kKQjTk7_2rvZ30SJY-61" value="" style="endArrow=classic;html=1;rounded=0;exitX=0;exitY=0.5;exitDx=0;exitDy=0;" parent="1" source="y39kKQjTk7_2rvZ30SJY-7" edge="1">
          <mxGeometry width="50" height="50" relative="1" as="geometry">
            <mxPoint x="180" y="390" as="sourcePoint" />
            <mxPoint x="110" y="340" as="targetPoint" />
          </mxGeometry>
        </mxCell>
        <mxCell id="y39kKQjTk7_2rvZ30SJY-62" value="" style="endArrow=classic;html=1;rounded=0;" parent="1" edge="1">
          <mxGeometry width="50" height="50" relative="1" as="geometry">
            <mxPoint x="160" y="340" as="sourcePoint" />
            <mxPoint x="110" y="410" as="targetPoint" />
          </mxGeometry>
        </mxCell>
        <mxCell id="y39kKQjTk7_2rvZ30SJY-63" value="" style="endArrow=classic;html=1;rounded=0;entryX=1;entryY=0.5;entryDx=0;entryDy=0;exitX=0;exitY=0.5;exitDx=0;exitDy=0;" parent="1" source="y39kKQjTk7_2rvZ30SJY-7" target="y39kKQjTk7_2rvZ30SJY-12" edge="1">
          <mxGeometry width="50" height="50" relative="1" as="geometry">
            <mxPoint x="160" y="320" as="sourcePoint" />
            <mxPoint x="110" y="480" as="targetPoint" />
          </mxGeometry>
        </mxCell>
        <mxCell id="y39kKQjTk7_2rvZ30SJY-64" value="" style="endArrow=classic;html=1;rounded=0;exitX=0;exitY=0.5;exitDx=0;exitDy=0;entryX=1;entryY=0.5;entryDx=0;entryDy=0;" parent="1" source="y39kKQjTk7_2rvZ30SJY-5" target="y39kKQjTk7_2rvZ30SJY-48" edge="1">
          <mxGeometry width="50" height="50" relative="1" as="geometry">
            <mxPoint x="-20" y="-90" as="sourcePoint" />
            <mxPoint x="-100" y="-130" as="targetPoint" />
          </mxGeometry>
        </mxCell>
        <mxCell id="y39kKQjTk7_2rvZ30SJY-65" value="" style="endArrow=classic;html=1;rounded=0;exitX=0;exitY=0.5;exitDx=0;exitDy=0;" parent="1" source="y39kKQjTk7_2rvZ30SJY-5" edge="1">
          <mxGeometry width="50" height="50" relative="1" as="geometry">
            <mxPoint x="-10" y="100" as="sourcePoint" />
            <mxPoint x="-110" y="-70" as="targetPoint" />
          </mxGeometry>
        </mxCell>
        <mxCell id="y39kKQjTk7_2rvZ30SJY-66" value="" style="endArrow=classic;html=1;rounded=0;exitX=0;exitY=0.5;exitDx=0;exitDy=0;" parent="1" source="y39kKQjTk7_2rvZ30SJY-5" edge="1">
          <mxGeometry width="50" height="50" relative="1" as="geometry">
            <mxPoint x="150" y="-50" as="sourcePoint" />
            <mxPoint x="-110" y="-10" as="targetPoint" />
          </mxGeometry>
        </mxCell>
        <mxCell id="y39kKQjTk7_2rvZ30SJY-67" value="" style="endArrow=classic;html=1;rounded=0;exitX=0;exitY=0.5;exitDx=0;exitDy=0;" parent="1" source="y39kKQjTk7_2rvZ30SJY-5" edge="1">
          <mxGeometry width="50" height="50" relative="1" as="geometry">
            <mxPoint x="50" y="80" as="sourcePoint" />
            <mxPoint x="-110" y="50" as="targetPoint" />
          </mxGeometry>
        </mxCell>
        <mxCell id="y39kKQjTk7_2rvZ30SJY-68" value="" style="endArrow=classic;html=1;rounded=0;entryX=1;entryY=0.5;entryDx=0;entryDy=0;exitX=0;exitY=0.5;exitDx=0;exitDy=0;" parent="1" source="y39kKQjTk7_2rvZ30SJY-5" target="y39kKQjTk7_2rvZ30SJY-43" edge="1">
          <mxGeometry width="50" height="50" relative="1" as="geometry">
            <mxPoint x="50" y="90" as="sourcePoint" />
            <mxPoint x="470" y="80" as="targetPoint" />
          </mxGeometry>
        </mxCell>
        <mxCell id="y39kKQjTk7_2rvZ30SJY-70" value="" style="endArrow=classic;html=1;rounded=0;entryX=1;entryY=0.5;entryDx=0;entryDy=0;exitX=0;exitY=0.5;exitDx=0;exitDy=0;" parent="1" source="y39kKQjTk7_2rvZ30SJY-5" target="y39kKQjTk7_2rvZ30SJY-45" edge="1">
          <mxGeometry width="50" height="50" relative="1" as="geometry">
            <mxPoint x="-10" y="100" as="sourcePoint" />
            <mxPoint x="470" y="80" as="targetPoint" />
          </mxGeometry>
        </mxCell>
        <mxCell id="y39kKQjTk7_2rvZ30SJY-71" value="" style="endArrow=classic;html=1;rounded=0;entryX=1;entryY=0.5;entryDx=0;entryDy=0;exitX=0;exitY=0.5;exitDx=0;exitDy=0;" parent="1" source="y39kKQjTk7_2rvZ30SJY-5" target="y39kKQjTk7_2rvZ30SJY-46" edge="1">
          <mxGeometry width="50" height="50" relative="1" as="geometry">
            <mxPoint x="-10" y="100" as="sourcePoint" />
            <mxPoint x="470" y="80" as="targetPoint" />
          </mxGeometry>
        </mxCell>
        <mxCell id="y39kKQjTk7_2rvZ30SJY-72" value="" style="endArrow=classic;html=1;rounded=0;entryX=1;entryY=0.5;entryDx=0;entryDy=0;exitX=0;exitY=0.5;exitDx=0;exitDy=0;" parent="1" source="y39kKQjTk7_2rvZ30SJY-5" target="y39kKQjTk7_2rvZ30SJY-49" edge="1">
          <mxGeometry width="50" height="50" relative="1" as="geometry">
            <mxPoint x="420" y="130" as="sourcePoint" />
            <mxPoint x="470" y="80" as="targetPoint" />
          </mxGeometry>
        </mxCell>
        <mxCell id="y39kKQjTk7_2rvZ30SJY-73" value="" style="endArrow=classic;html=1;rounded=0;entryX=0;entryY=0.5;entryDx=0;entryDy=0;exitX=1;exitY=0.5;exitDx=0;exitDy=0;" parent="1" source="y39kKQjTk7_2rvZ30SJY-29" target="y39kKQjTk7_2rvZ30SJY-30" edge="1">
          <mxGeometry width="50" height="50" relative="1" as="geometry">
            <mxPoint x="420" y="130" as="sourcePoint" />
            <mxPoint x="470" y="80" as="targetPoint" />
          </mxGeometry>
        </mxCell>
        <mxCell id="y39kKQjTk7_2rvZ30SJY-74" value="" style="endArrow=classic;html=1;rounded=0;exitX=1;exitY=0.5;exitDx=0;exitDy=0;" parent="1" source="y39kKQjTk7_2rvZ30SJY-29" target="y39kKQjTk7_2rvZ30SJY-32" edge="1">
          <mxGeometry width="50" height="50" relative="1" as="geometry">
            <mxPoint x="420" y="130" as="sourcePoint" />
            <mxPoint x="470" y="80" as="targetPoint" />
          </mxGeometry>
        </mxCell>
        <mxCell id="y39kKQjTk7_2rvZ30SJY-75" value="" style="endArrow=classic;html=1;rounded=0;entryX=0;entryY=0.5;entryDx=0;entryDy=0;exitX=1;exitY=0.5;exitDx=0;exitDy=0;" parent="1" source="y39kKQjTk7_2rvZ30SJY-29" target="y39kKQjTk7_2rvZ30SJY-31" edge="1">
          <mxGeometry width="50" height="50" relative="1" as="geometry">
            <mxPoint x="420" y="130" as="sourcePoint" />
            <mxPoint x="470" y="80" as="targetPoint" />
          </mxGeometry>
        </mxCell>
        <mxCell id="y39kKQjTk7_2rvZ30SJY-76" value="Delete" style="ellipse;whiteSpace=wrap;html=1;" parent="1" vertex="1">
          <mxGeometry x="380" y="650" width="80" height="50" as="geometry" />
        </mxCell>
        <mxCell id="y39kKQjTk7_2rvZ30SJY-77" value="Edit" style="ellipse;whiteSpace=wrap;html=1;" parent="1" vertex="1">
          <mxGeometry x="270" y="650" width="80" height="50" as="geometry" />
        </mxCell>
        <mxCell id="y39kKQjTk7_2rvZ30SJY-78" value="View" style="ellipse;whiteSpace=wrap;html=1;" parent="1" vertex="1">
          <mxGeometry x="170" y="650" width="80" height="50" as="geometry" />
        </mxCell>
        <mxCell id="y39kKQjTk7_2rvZ30SJY-79" value="Book Info" style="ellipse;whiteSpace=wrap;html=1;" parent="1" vertex="1">
          <mxGeometry x="70" y="650" width="80" height="50" as="geometry" />
        </mxCell>
        <mxCell id="y39kKQjTk7_2rvZ30SJY-80" value="Book Image" style="ellipse;whiteSpace=wrap;html=1;" parent="1" vertex="1">
          <mxGeometry x="-40" y="650" width="80" height="50" as="geometry" />
        </mxCell>
        <mxCell id="y39kKQjTk7_2rvZ30SJY-84" value="" style="endArrow=classic;html=1;rounded=0;exitX=0.5;exitY=1;exitDx=0;exitDy=0;entryX=0.5;entryY=0;entryDx=0;entryDy=0;" parent="1" source="y39kKQjTk7_2rvZ30SJY-20" target="y39kKQjTk7_2rvZ30SJY-76" edge="1">
          <mxGeometry width="50" height="50" relative="1" as="geometry">
            <mxPoint x="420" y="700" as="sourcePoint" />
            <mxPoint x="470" y="650" as="targetPoint" />
          </mxGeometry>
        </mxCell>
        <mxCell id="y39kKQjTk7_2rvZ30SJY-85" value="" style="endArrow=classic;html=1;rounded=0;entryX=0.5;entryY=0;entryDx=0;entryDy=0;" parent="1" target="y39kKQjTk7_2rvZ30SJY-77" edge="1">
          <mxGeometry width="50" height="50" relative="1" as="geometry">
            <mxPoint x="210" y="490" as="sourcePoint" />
            <mxPoint x="470" y="650" as="targetPoint" />
          </mxGeometry>
        </mxCell>
        <mxCell id="y39kKQjTk7_2rvZ30SJY-86" value="" style="endArrow=classic;html=1;rounded=0;entryX=0.5;entryY=0;entryDx=0;entryDy=0;" parent="1" target="y39kKQjTk7_2rvZ30SJY-78" edge="1">
          <mxGeometry width="50" height="50" relative="1" as="geometry">
            <mxPoint x="210" y="490" as="sourcePoint" />
            <mxPoint x="470" y="650" as="targetPoint" />
          </mxGeometry>
        </mxCell>
        <mxCell id="y39kKQjTk7_2rvZ30SJY-87" value="" style="endArrow=classic;html=1;rounded=0;exitX=0.5;exitY=1;exitDx=0;exitDy=0;entryX=0.5;entryY=0;entryDx=0;entryDy=0;" parent="1" source="y39kKQjTk7_2rvZ30SJY-20" target="y39kKQjTk7_2rvZ30SJY-79" edge="1">
          <mxGeometry width="50" height="50" relative="1" as="geometry">
            <mxPoint x="420" y="700" as="sourcePoint" />
            <mxPoint x="470" y="650" as="targetPoint" />
          </mxGeometry>
        </mxCell>
        <mxCell id="y39kKQjTk7_2rvZ30SJY-88" value="" style="endArrow=classic;html=1;rounded=0;entryX=0.5;entryY=0;entryDx=0;entryDy=0;" parent="1" target="y39kKQjTk7_2rvZ30SJY-80" edge="1">
          <mxGeometry width="50" height="50" relative="1" as="geometry">
            <mxPoint x="210" y="490" as="sourcePoint" />
            <mxPoint x="470" y="650" as="targetPoint" />
          </mxGeometry>
        </mxCell>
        <mxCell id="y39kKQjTk7_2rvZ30SJY-89" value="" style="endArrow=classic;html=1;rounded=0;entryX=1;entryY=0.5;entryDx=0;entryDy=0;" parent="1" target="y39kKQjTk7_2rvZ30SJY-44" edge="1">
          <mxGeometry width="50" height="50" relative="1" as="geometry">
            <mxPoint x="160" y="85" as="sourcePoint" />
            <mxPoint x="420" y="60" as="targetPoint" />
          </mxGeometry>
        </mxCell>
        <mxCell id="y39kKQjTk7_2rvZ30SJY-92" value="Create New Books" style="shape=hexagon;perimeter=hexagonPerimeter2;whiteSpace=wrap;html=1;fixedSize=1;" parent="1" vertex="1">
          <mxGeometry x="720" y="-70" width="100" height="50" as="geometry" />
        </mxCell>
        <mxCell id="y39kKQjTk7_2rvZ30SJY-93" value="" style="endArrow=classic;html=1;rounded=0;entryX=0;entryY=0.5;entryDx=0;entryDy=0;" parent="1" target="y39kKQjTk7_2rvZ30SJY-92" edge="1">
          <mxGeometry width="50" height="50" relative="1" as="geometry">
            <mxPoint x="690" y="220" as="sourcePoint" />
            <mxPoint x="740" y="160" as="targetPoint" />
          </mxGeometry>
        </mxCell>
        <mxCell id="y39kKQjTk7_2rvZ30SJY-95" value="" style="endArrow=classic;html=1;rounded=0;exitX=1;exitY=0.5;exitDx=0;exitDy=0;entryX=0;entryY=0.5;entryDx=0;entryDy=0;" parent="1" source="y39kKQjTk7_2rvZ30SJY-92" target="y39kKQjTk7_2rvZ30SJY-101" edge="1">
          <mxGeometry width="50" height="50" relative="1" as="geometry">
            <mxPoint x="820" y="-40" as="sourcePoint" />
            <mxPoint x="870" y="-90" as="targetPoint" />
          </mxGeometry>
        </mxCell>
        <mxCell id="y39kKQjTk7_2rvZ30SJY-96" value="" style="endArrow=classic;html=1;rounded=0;exitX=1;exitY=0.5;exitDx=0;exitDy=0;entryX=0;entryY=0.5;entryDx=0;entryDy=0;" parent="1" source="y39kKQjTk7_2rvZ30SJY-92" target="y39kKQjTk7_2rvZ30SJY-98" edge="1">
          <mxGeometry width="50" height="50" relative="1" as="geometry">
            <mxPoint x="860" y="-10" as="sourcePoint" />
            <mxPoint x="880" y="-30" as="targetPoint" />
          </mxGeometry>
        </mxCell>
        <mxCell id="y39kKQjTk7_2rvZ30SJY-97" value="" style="endArrow=classic;html=1;rounded=0;exitX=1;exitY=0.5;exitDx=0;exitDy=0;entryX=0;entryY=0.5;entryDx=0;entryDy=0;" parent="1" source="y39kKQjTk7_2rvZ30SJY-92" target="y39kKQjTk7_2rvZ30SJY-99" edge="1">
          <mxGeometry width="50" height="50" relative="1" as="geometry">
            <mxPoint x="830" y="-10" as="sourcePoint" />
            <mxPoint x="880" y="20" as="targetPoint" />
          </mxGeometry>
        </mxCell>
        <mxCell id="y39kKQjTk7_2rvZ30SJY-98" value="Aughor Name" style="ellipse;whiteSpace=wrap;html=1;" parent="1" vertex="1">
          <mxGeometry x="870" y="-160" width="80" height="50" as="geometry" />
        </mxCell>
        <mxCell id="y39kKQjTk7_2rvZ30SJY-99" value="Edition" style="ellipse;whiteSpace=wrap;html=1;" parent="1" vertex="1">
          <mxGeometry x="870" y="-90" width="80" height="50" as="geometry" />
        </mxCell>
        <mxCell id="y39kKQjTk7_2rvZ30SJY-100" value="Create Book Button" style="ellipse;whiteSpace=wrap;html=1;" parent="1" vertex="1">
          <mxGeometry x="870" y="-20" width="80" height="50" as="geometry" />
        </mxCell>
        <mxCell id="y39kKQjTk7_2rvZ30SJY-101" value="Bokk Name" style="ellipse;whiteSpace=wrap;html=1;" parent="1" vertex="1">
          <mxGeometry x="870" y="-230" width="80" height="50" as="geometry" />
        </mxCell>
        <mxCell id="y39kKQjTk7_2rvZ30SJY-102" value="" style="endArrow=classic;html=1;rounded=0;entryX=0;entryY=0.5;entryDx=0;entryDy=0;exitX=1;exitY=0.5;exitDx=0;exitDy=0;" parent="1" source="y39kKQjTk7_2rvZ30SJY-92" target="y39kKQjTk7_2rvZ30SJY-100" edge="1">
          <mxGeometry width="50" height="50" relative="1" as="geometry">
            <mxPoint x="500" y="60" as="sourcePoint" />
            <mxPoint x="550" y="10" as="targetPoint" />
          </mxGeometry>
        </mxCell>
        <mxCell id="y39kKQjTk7_2rvZ30SJY-104" value="Book Info" style="shape=parallelogram;perimeter=parallelogramPerimeter;whiteSpace=wrap;html=1;fixedSize=1;" parent="1" vertex="1">
          <mxGeometry x="990" y="30" width="120" height="40" as="geometry" />
        </mxCell>
        <mxCell id="y39kKQjTk7_2rvZ30SJY-105" value="Back To List" style="shape=parallelogram;perimeter=parallelogramPerimeter;whiteSpace=wrap;html=1;fixedSize=1;" parent="1" vertex="1">
          <mxGeometry x="990" y="90" width="120" height="40" as="geometry" />
        </mxCell>
        <mxCell id="y39kKQjTk7_2rvZ30SJY-111" value="Edition" style="shape=parallelogram;perimeter=parallelogramPerimeter;whiteSpace=wrap;html=1;fixedSize=1;" parent="1" vertex="1">
          <mxGeometry x="1150" y="330" width="120" height="40" as="geometry" />
        </mxCell>
        <mxCell id="y39kKQjTk7_2rvZ30SJY-112" value="Author Name" style="shape=parallelogram;perimeter=parallelogramPerimeter;whiteSpace=wrap;html=1;fixedSize=1;" parent="1" vertex="1">
          <mxGeometry x="1150" y="270" width="120" height="40" as="geometry" />
        </mxCell>
        <mxCell id="y39kKQjTk7_2rvZ30SJY-113" value="Book Name" style="shape=parallelogram;perimeter=parallelogramPerimeter;whiteSpace=wrap;html=1;fixedSize=1;" parent="1" vertex="1">
          <mxGeometry x="1150" y="210" width="120" height="40" as="geometry" />
        </mxCell>
        <mxCell id="y39kKQjTk7_2rvZ30SJY-114" value="Edit Book" style="shape=parallelogram;perimeter=parallelogramPerimeter;whiteSpace=wrap;html=1;fixedSize=1;" parent="1" vertex="1">
          <mxGeometry x="1150" y="390" width="120" height="40" as="geometry" />
        </mxCell>
        <mxCell id="y39kKQjTk7_2rvZ30SJY-115" value="ID" style="shape=parallelogram;perimeter=parallelogramPerimeter;whiteSpace=wrap;html=1;fixedSize=1;" parent="1" vertex="1">
          <mxGeometry x="1150" y="150" width="120" height="40" as="geometry" />
        </mxCell>
        <mxCell id="y39kKQjTk7_2rvZ30SJY-116" value="Back To List" style="shape=parallelogram;perimeter=parallelogramPerimeter;whiteSpace=wrap;html=1;fixedSize=1;" parent="1" vertex="1">
          <mxGeometry x="1150" y="450" width="120" height="40" as="geometry" />
        </mxCell>
        <mxCell id="y39kKQjTk7_2rvZ30SJY-122" value="" style="endArrow=classic;html=1;rounded=0;entryX=0;entryY=0.5;entryDx=0;entryDy=0;" parent="1" target="y39kKQjTk7_2rvZ30SJY-115" edge="1">
          <mxGeometry width="50" height="50" relative="1" as="geometry">
            <mxPoint x="960" y="220" as="sourcePoint" />
            <mxPoint x="1010" y="170" as="targetPoint" />
          </mxGeometry>
        </mxCell>
        <mxCell id="y39kKQjTk7_2rvZ30SJY-123" value="" style="endArrow=classic;html=1;rounded=0;" parent="1" target="y39kKQjTk7_2rvZ30SJY-113" edge="1">
          <mxGeometry width="50" height="50" relative="1" as="geometry">
            <mxPoint x="960" y="220" as="sourcePoint" />
            <mxPoint x="1010" y="170" as="targetPoint" />
          </mxGeometry>
        </mxCell>
        <mxCell id="y39kKQjTk7_2rvZ30SJY-124" value="" style="endArrow=classic;html=1;rounded=0;entryX=0;entryY=0.5;entryDx=0;entryDy=0;" parent="1" target="y39kKQjTk7_2rvZ30SJY-112" edge="1">
          <mxGeometry width="50" height="50" relative="1" as="geometry">
            <mxPoint x="970" y="220" as="sourcePoint" />
            <mxPoint x="540" y="140" as="targetPoint" />
          </mxGeometry>
        </mxCell>
        <mxCell id="y39kKQjTk7_2rvZ30SJY-125" value="" style="endArrow=classic;html=1;rounded=0;exitX=1;exitY=0.5;exitDx=0;exitDy=0;" parent="1" source="y39kKQjTk7_2rvZ30SJY-32" edge="1">
          <mxGeometry width="50" height="50" relative="1" as="geometry">
            <mxPoint x="1120" y="390" as="sourcePoint" />
            <mxPoint x="1160" y="350" as="targetPoint" />
          </mxGeometry>
        </mxCell>
        <mxCell id="y39kKQjTk7_2rvZ30SJY-126" value="" style="endArrow=classic;html=1;rounded=0;" parent="1" edge="1">
          <mxGeometry width="50" height="50" relative="1" as="geometry">
            <mxPoint x="970" y="220" as="sourcePoint" />
            <mxPoint x="1160" y="410" as="targetPoint" />
          </mxGeometry>
        </mxCell>
        <mxCell id="y39kKQjTk7_2rvZ30SJY-127" value="" style="endArrow=classic;html=1;rounded=0;entryX=0;entryY=0.5;entryDx=0;entryDy=0;" parent="1" target="y39kKQjTk7_2rvZ30SJY-116" edge="1">
          <mxGeometry width="50" height="50" relative="1" as="geometry">
            <mxPoint x="970" y="220" as="sourcePoint" />
            <mxPoint x="1070" y="460" as="targetPoint" />
          </mxGeometry>
        </mxCell>
        <mxCell id="y39kKQjTk7_2rvZ30SJY-128" value="Back To List" style="shape=parallelogram;perimeter=parallelogramPerimeter;whiteSpace=wrap;html=1;fixedSize=1;" parent="1" vertex="1">
          <mxGeometry x="990" y="550" width="120" height="40" as="geometry" />
        </mxCell>
        <mxCell id="y39kKQjTk7_2rvZ30SJY-131" value="" style="endArrow=classic;html=1;rounded=0;entryX=0;entryY=0.5;entryDx=0;entryDy=0;" parent="1" target="y39kKQjTk7_2rvZ30SJY-128" edge="1">
          <mxGeometry width="50" height="50" relative="1" as="geometry">
            <mxPoint x="920" y="310" as="sourcePoint" />
            <mxPoint x="970" y="260" as="targetPoint" />
          </mxGeometry>
        </mxCell>
        <mxCell id="y39kKQjTk7_2rvZ30SJY-133" value="Delete Book Function" style="shape=parallelogram;perimeter=parallelogramPerimeter;whiteSpace=wrap;html=1;fixedSize=1;" parent="1" vertex="1">
          <mxGeometry x="810" y="550" width="170" height="40" as="geometry" />
        </mxCell>
      </root>
    </mxGraphModel>
  </diagram>
</mxfile>
